{"accessors" : [{"bufferView" : 0, "byteOffset" : 0, "componentType" : 5123, "count" : 3012, "type" : "SCALAR", "max" : [2409], "min" : [0]}, {"bufferView" : 1, "byteOffset" : 0, "componentType" : 5126, "count" : 2410, "type" : "VEC3", "max" : [1.0582966804504395, 1.6253560781478882, 0.30310842394828796], "min" : [-1.0582966804504395, 0.3113400936126709, -0.6762720346450806], "name" : "POSITION"}, {"bufferView" : 1, "byteOffset" : 12, "componentType" : 5126, "count" : 2410, "type" : "VEC3", "max" : [0.999903678894043, 1.0000035762786865, 0.9997815489768982], "min" : [-0.999903678894043, -0.9999798536300659, -1.0000019073486328], "name" : "NORMAL"}, {"bufferView" : 1, "byteOffset" : 24, "componentType" : 5126, "count" : 2410, "type" : "VEC2", "max" : [0.875, 1], "min" : [0, 0], "name" : "TEXCOORD_0"}, {"bufferView" : 0, "byteOffset" : 6024, "componentType" : 5123, "count" : 120, "type" : "SCALAR", "max" : [98], "min" : [0]}, {"bufferView" : 2, "byteOffset" : 0, "componentType" : 5126, "count" : 99, "type" : "VEC3", "max" : [0.030159786343574524, 1.2317551374435425, 0.3096694052219391], "min" : [-0.030159786343574524, 1.1786917448043823, 0.2727338671684265], "name" : "POSITION"}, {"bufferView" : 2, "byteOffset" : 12, "componentType" : 5126, "count" : 99, "type" : "VEC3", "max" : [0.771348774433136, 0.8720265030860901, 0.978594183921814], "min" : [-0.771348774433136, -0.9790219664573669, 0.16077487170696259], "name" : "NORMAL"}, {"bufferView" : 2, "byteOffset" : 24, "componentType" : 5126, "count" : 99, "type" : "VEC2", "max" : [0.875, 0.5], "min" : [0.125, 0], "name" : "TEXCOORD_0"}, {"bufferView" : 0, "byteOffset" : 6264, "componentType" : 5123, "count" : 135, "type" : "SCALAR", "max" : [111], "min" : [0]}, {"bufferView" : 3, "byteOffset" : 0, "componentType" : 5126, "count" : 112, "type" : "VEC3", "max" : [0.31364312767982483, 1.6040561199188232, 0.30310842394828796], "min" : [-0.31364309787750244, 1.187729835510254, 0.07415586709976196], "name" : "POSITION"}, {"bufferView" : 3, "byteOffset" : 12, "componentType" : 5126, "count" : 112, "type" : "VEC3", "max" : [0.8257596492767334, 0.7616697549819946, 0.9793123006820679], "min" : [-0.9492233991622925, -0.7463858127593994, 0.18424734473228455], "name" : "NORMAL"}, {"bufferView" : 3, "byteOffset" : 24, "componentType" : 5126, "count" : 112, "type" : "VEC2", "max" : [0.6611769199371338, 0.3750000596046448], "min" : [0.4990682601928711, 0.125], "name" : "TEXCOORD_0"}, {"bufferView" : 0, "byteOffset" : 6536, "componentType" : 5123, "count" : 414, "type" : "SCALAR", "max" : [325], "min" : [0]}, {"bufferView" : 4, "byteOffset" : 0, "componentType" : 5126, "count" : 326, "type" : "VEC3", "max" : [0.14499984681606293, 1.1888737678527832, 0.2604120671749115], "min" : [-0.14499983191490173, 1.091740369796753, 0.11023461073637009], "name" : "POSITION"}, {"bufferView" : 4, "byteOffset" : 12, "componentType" : 5126, "count" : 326, "type" : "VEC3", "max" : [0.8830087780952454, 0.9997339844703674, 0.9853975772857666], "min" : [-0.8830087780952454, -0.9999798536300659, -0.8689150214195251], "name" : "NORMAL"}, {"bufferView" : 4, "byteOffset" : 24, "componentType" : 5126, "count" : 326, "type" : "VEC2", "max" : [0.457080602645874, 0.125], "min" : [0.32724958658218384, 0.12499988079071045], "name" : "TEXCOORD_0"}, {"bufferView" : 0, "byteOffset" : 7364, "componentType" : 5123, "count" : 2112, "type" : "SCALAR", "max" : [1791], "min" : [0]}, {"bufferView" : 5, "byteOffset" : 0, "componentType" : 5126, "count" : 1792, "type" : "VEC3", "max" : [0.2361634373664856, 1.3203233480453491, 0.2655413746833801], "min" : [-0.23616346716880798, 1.2551220655441284, 0.2003720998764038], "name" : "POSITION"}, {"bufferView" : 5, "byteOffset" : 12, "componentType" : 5126, "count" : 1792, "type" : "VEC3", "max" : [0.9993774890899658, 1.0000044107437134, 0.9998818635940552], "min" : [-0.9993774890899658, -1.0000044107437134, -0.9998818635940552], "name" : "NORMAL"}, {"bufferView" : 5, "byteOffset" : 24, "componentType" : 5126, "count" : 1792, "type" : "VEC2", "max" : [1, 1], "min" : [0, 0], "name" : "TEXCOORD_0"}, {"bufferView" : 0, "byteOffset" : 11588, "componentType" : 5123, "count" : 1656, "type" : "SCALAR", "max" : [1379], "min" : [0]}, {"bufferView" : 6, "byteOffset" : 0, "componentType" : 5126, "count" : 1380, "type" : "VEC3", "max" : [0.2188938856124878, 1.2106084823608398, 0.28530746698379517], "min" : [-0.2188938856124878, 1.131642460823059, 0.27504730224609375], "name" : "POSITION"}, {"bufferView" : 6, "byteOffset" : 12, "componentType" : 5126, "count" : 1380, "type" : "VEC3", "max" : [0.9864683151245117, 0.8706856966018677, 0.9999417066574097], "min" : [-0.9864683151245117, -0.8613837957382202, -0.9999415874481201], "name" : "NORMAL"}, {"bufferView" : 6, "byteOffset" : 24, "componentType" : 5126, "count" : 1380, "type" : "VEC2", "max" : [1, 1], "min" : [0, 0], "name" : "TEXCOORD_0"}, {"bufferView" : 0, "byteOffset" : 14900, "componentType" : 5123, "count" : 696, "type" : "SCALAR", "max" : [575], "min" : [0]}, {"bufferView" : 7, "byteOffset" : 0, "componentType" : 5126, "count" : 576, "type" : "VEC3", "max" : [1.0414443016052246, 0.8135422468185425, 0.10644788295030594], "min" : [-1.0414443016052246, 0.77442866563797, -0.06817743182182312], "name" : "POSITION"}, {"bufferView" : 7, "byteOffset" : 12, "componentType" : 5126, "count" : 576, "type" : "VEC3", "max" : [0.9446391463279724, 0.9165603518486023, 0.8444446921348572], "min" : [-0.9446391463279724, 0.25605660676956177, -0.8541730642318726], "name" : "NORMAL"}, {"bufferView" : 7, "byteOffset" : 24, "componentType" : 5126, "count" : 576, "type" : "VEC2", "max" : [0.875, 0.75], "min" : [0.125, 0.25], "name" : "TEXCOORD_0"}], "asset" : {"generator" : "Aspose.3D 22.6", "version" : "2.0"}, "buffers" : [{"uri" : "data:application/octet-stream;base64,", "byteLength" : 276964}], "bufferViews" : [{"buffer" : 0, "byteOffset" : 0, "byteLength" : 16292, "target" : 34963}, {"buffer" : 0, "byteOffset" : 16296, "byteLength" : 96384, "byteStride" : 32, "target" : 34962}, {"buffer" : 0, "byteOffset" : 112684, "byteLength" : 3840, "byteStride" : 32, "target" : 34962}, {"buffer" : 0, "byteOffset" : 116528, "byteLength" : 4320, "byteStride" : 32, "target" : 34962}, {"buffer" : 0, "byteOffset" : 120852, "byteLength" : 13248, "byteStride" : 32, "target" : 34962}, {"buffer" : 0, "byteOffset" : 134104, "byteLength" : 67584, "byteStride" : 32, "target" : 34962}, {"buffer" : 0, "byteOffset" : 201692, "byteLength" : 52992, "byteStride" : 32, "target" : 34962}, {"buffer" : 0, "byteOffset" : 254688, "byteLength" : 22272, "byteStride" : 32, "target" : 34962}], "materials" : [{"name" : "body", "pbrMetallicRoughness" : {"baseColorFactor" : [0.8000000715255737, 0.7467361688613892, 0.6218932271003723, 1], "metallicFactor" : 0, "roughnessFactor" : 0.9615384340286255}, "emissiveFactor" : [0, 0, 0], "alphaMode" : "OPAQUE", "doubleSided" : true}, {"name" : "nose", "pbrMetallicRoughness" : {"baseColorFactor" : [0.058960601687431335, 0.014191056601703167, 0.005265853833407164, 1], "metallicFactor" : 0, "roughnessFactor" : 0.5}, "emissiveFactor" : [0, 0, 0], "alphaMode" : "OPAQUE", "doubleSided" : true}, {"name" : "uppermouth", "pbrMetallicRoughness" : {"baseColorFactor" : [0.5271153450012207, 0.28024813532829285, 0.20492777228355408, 1], "metallicFactor" : 0, "roughnessFactor" : 0.5}, "emissiveFactor" : [0, 0, 0], "alphaMode" : "OPAQUE", "doubleSided" : true}, {"name" : "mouth", "pbrMetallicRoughness" : {"baseColorFactor" : [0.8000000715255737, 0.05170506238937378, 0.04203009977936745, 1], "metallicFactor" : 0, "roughnessFactor" : 0.5}, "emissiveFactor" : [0, 0, 0], "alphaMode" : "OPAQUE", "doubleSided" : true}, {"name" : "eye", "pbrMetallicRoughness" : {"baseColorFactor" : [0.028335800394415855, 0.028335800394415855, 0.028335800394415855, 1], "metallicFactor" : 0, "roughnessFactor" : 0.8475783467292786}, "emissiveFactor" : [0, 0, 0], "alphaMode" : "OPAQUE", "doubleSided" : true}, {"name" : "hige", "pbrMetallicRoughness" : {"baseColorFactor" : [0.02399447374045849, 0.01436296384781599, 0.006799719296395779, 1], "metallicFactor" : 0, "roughnessFactor" : 0.9558404684066772}, "emissiveFactor" : [0, 0, 0], "alphaMode" : "OPAQUE", "doubleSided" : true}, {"name" : "cat nikukyu", "pbrMetallicRoughness" : {"baseColorFactor" : [0.5596057176589966, 0.3295828402042389, 0.35112708806991577, 1], "metallicFactor" : 0, "roughnessFactor" : 0.5}, "emissiveFactor" : [0, 0, 0], "alphaMode" : "OPAQUE", "doubleSided" : true}], "meshes" : [{"primitives" : [{"attributes" : {"POSITION" : 1, "NORMAL" : 2, "TEXCOORD_0" : 3}, "indices" : 0, "material" : 0, "mode" : 4}, {"attributes" : {"POSITION" : 5, "NORMAL" : 6, "TEXCOORD_0" : 7}, "indices" : 4, "material" : 1, "mode" : 4}, {"attributes" : {"POSITION" : 9, "NORMAL" : 10, "TEXCOORD_0" : 11}, "indices" : 8, "material" : 2, "mode" : 4}, {"attributes" : {"POSITION" : 13, "NORMAL" : 14, "TEXCOORD_0" : 15}, "indices" : 12, "material" : 3, "mode" : 4}, {"attributes" : {"POSITION" : 17, "NORMAL" : 18, "TEXCOORD_0" : 19}, "indices" : 16, "material" : 4, "mode" : 4}, {"attributes" : {"POSITION" : 21, "NORMAL" : 22, "TEXCOORD_0" : 23}, "indices" : 20, "material" : 5, "mode" : 4}, {"attributes" : {"POSITION" : 25, "NORMAL" : 26, "TEXCOORD_0" : 27}, "indices" : 24, "material" : 6, "mode" : 4}]}], "nodes" : [{"mesh" : 0, "name" : "body"}, {"children" : [0], "matrix" : [1, 0, 0, 0, 0, 1, 0, 0, 0, 0, 1, 0, 0.002080187201499939, 0.009044408798217773, 0.06326746940612793, 1], "name" : "Armature"}], "scene" : 0, "scenes" : [{"nodes" : [1]}]}